<svg xmlns="http://www.w3.org/2000/svg" viewBox="0 0 64 64">
  <defs>
    <linearGradient id="bg" x1="0" x2="1" y1="0" y2="1">
      <stop offset="0" stop-color="#f4eee3"/>
      <stop offset="1" stop-color="#ece1cf"/>
    </linearGradient>
    <linearGradient id="paper" x1="0" x2="1" y1="0" y2="1">
      <stop offset="0" stop-color="#fffaf0"/>
      <stop offset="1" stop-color="#f2e7d4"/>
    </linearGradient>
  </defs>
  <rect width="64" height="64" rx="14" fill="url(#bg)"/>
  <g transform="translate(11 9)">
    <path d="M2 2h34l8 8v34a2 2 0 0 1-2 2H2a2 2 0 0 1-2-2V4a2 2 0 0 1 2-2z" fill="url(#paper)" stroke="#d2c2a6" stroke-width="1.2"/>
    <path d="M36 2v8h8" fill="#efe3ce" stroke="#d2c2a6" stroke-width="1.2"/>
    <g stroke="#dbcbb1" stroke-width="1">
      <line x1="7" y1="17" x2="34" y2="17"/>
      <line x1="7" y1="22" x2="34" y2="22"/>
      <line x1="7" y1="27" x2="34" y2="27"/>
      <line x1="7" y1="32" x2="34" y2="32"/>
    </g>
    <circle cx="31.5" cy="36.5" r="4.2" fill="#7b2f37"/>
    <circle cx="31.5" cy="36.5" r="1.2" fill="#f2d9d5" opacity=".7"/>
  </g>
</svg>